<svg xmlns="http://www.w3.org/2000/svg" xmlns:xlink="http://www.w3.org/1999/xlink" id="Capa_1" x="0px" y="0px" viewBox="0 0 324.4 459.2" style="enable-background:new 0 0 324.4 459.2;" xml:space="preserve">
<style type="text/css">
	.st0{fill:#FFFFFF;stroke:#0C045F;stroke-miterlimit:10;}
	.st1{fill:#939598;}
	.st2{fill:#0C045F;}
	.st3{fill:#FE2D22;}
	.st4{fill:#FFFFFF;}
	.st5{fill:#FF3127;}
</style>
<g>
	<g>
		<path class="st0" d="M-1007.6,784.5c0,70.7-57.3,128-128,128c-70.7,0-128-57.3-128-128s57.3-128,128-128    C-1065,656.5-1007.6,713.8-1007.6,784.5z"></path>
		<g>
			<path class="st1" d="M-1115.8,776h-20.2v68.2h-23.4V776h-12.9v-11.3l12.9-6.3v-6.3c0-9.8,2.4-16.9,7.2-21.4     c4.8-4.5,12.5-6.7,23.1-6.7c8.1,0,15.2,1.2,21.5,3.6l-6,17.2c-4.7-1.5-9-2.2-13-2.2c-3.3,0-5.7,1-7.2,3s-2.2,4.5-2.2,7.6v5.4     h20.2V776z"></path>
		</g>
	</g>
	<g>
		<path class="st0" d="M-672.4,784.5c0,70.7-57.3,128-128,128s-128-57.3-128-128s57.3-128,128-128    C-729.6,656.5-672.4,713.8-672.4,784.5z"></path>
		<g>
			<path class="st1" d="M-844.1,784.5c0-8.2,2.3-15.8,6.2-22.4v-27.8h-27.9c-11,14.3-17,31.8-17,50.2s6,35.8,17,50.2h27.8v-27.8     C-841.9,800.3-844.1,792.6-844.1,784.5z"></path>
			<path class="st1" d="M-800.3,828.2l-19.3,19.3l19.3,19.3c18.4,0,35.8-6,50.2-17V822h-27.8C-784.6,826-792.2,828.2-800.3,828.2z"></path>
			<path class="st1" d="M-838,806.8l-27.8,27.8c2.2,2.8,4.6,5.6,7.1,8.1c15.6,15.6,36.3,24.1,58.3,24.1v-38.6     C-816.3,828.2-830.3,819.6-838,806.8L-838,806.8z"></path>
			<path class="st1" d="M-717.9,784.5c0-5-0.5-10-1.3-14.9l-0.7-4h-80.3v38.6h39.1c-3.8,7.6-9.6,13.7-16.7,17.9l27.8,27.8     c2.8-2.2,5.6-4.6,8.1-7.1C-726.5,827.2-717.9,806.5-717.9,784.5z"></path>
			<path class="st1" d="M-769.4,753.5l3.4,3.4l27.3-27.3l-3.4-3.4c-15.6-15.6-36.3-24.1-58.3-24.1l-19.3,19.3l19.3,19.3     C-788.7,740.7-777.7,745.2-769.4,753.5z"></path>
			<path class="st1" d="M-800.3,740.7v-38.6c-22,0-42.7,8.6-58.3,24.1c-2.6,2.6-5,5.3-7.1,8.1l27.8,27.8     C-830.3,749.3-816.3,740.7-800.3,740.7z"></path>
		</g>
	</g>
	<g>
		<path class="st0" d="M-341.2,784.5c0,70.7-57.3,128-128,128s-128-57.3-128-128s57.3-128,128-128S-341.2,713.8-341.2,784.5z"></path>
		<g>
			<g>
				<g>
					<path class="st1" d="M-450.3,726c4.2-4.2,6.9-8.3,9-13.2c1.7-4.9,2.8-9,2.8-13.2c0-0.3,0-0.7,0-1s0-0.7,0-1s0-0.7-0.3-1       c0-0.3-0.3-0.7-0.3-1c-11.5,2.8-19.4,7.3-23.9,14.2c-4.9,6.9-7.3,15.3-7.6,24.6c4.2-0.3,7.6-1,10.1-1.7       C-457.2,731.6-453.8,729.5-450.3,726z"></path>
				</g>
				<g>
					<path class="st1" d="M-417.7,800.3c-4.5-6.2-6.6-13.5-6.6-21.5c0-7.3,2.1-13.9,6.2-19.8c2.1-3.1,5.9-6.9,11.1-11.5       c-3.5-4.2-6.6-7.3-10.1-9.7c-5.9-4.2-12.8-6.2-20.5-6.2c-4.5,0-10.1,1-16.7,3.1c-6.2,2.1-10.8,3.1-13.9,3.1       c-2.1,0-6.6-1-13.2-2.8c-6.6-2.1-12.5-2.8-17-2.8c-11.1,0-20.1,4.5-27.4,13.9s-10.8,21.5-10.8,36.1c0,15.6,4.9,31.6,14.2,48.6       c9.7,16.7,19.1,25,29.2,25c3.1,0,7.6-1,12.8-3.1c5.2-2.1,9.7-3.1,13.5-3.1c4.2,0,9,1,14.6,3.1c5.9,2.1,10.4,3.1,13.5,3.1       c8.3,0,16.3-6.2,24.6-18.7c5.6-8,9.4-16,11.8-23.9C-407.9,810.7-413.2,806.5-417.7,800.3z"></path>
				</g>
			</g>
		</g>
	</g>
</g>
<g>
	<g>
		<path class="st2" d="M-1445.4-939.2l3.8-25.2l-7.6,0.7l1.2-7.8l24.3-2.1l-1.2,7.8l-7.6,0.7l-3.8,25.2L-1445.4-939.2z"></path>
		<path class="st2" d="M-1377.5-945.1l5-33.1l9.2-0.8l-2,12.8l12.3-1.1l2-12.8l9.2-0.8l-5,33.1l-9.2,0.8l2.1-13.5l-12.3,1.1    l-2.1,13.5L-1377.5-945.1z"></path>
		<path class="st2" d="M-1296.9-952.2l16.7-34.1l11.5-1l6.6,32l-9.2,0.8l-0.8-5.8l-13.1,1.1l-2.7,6.1L-1296.9-952.2z M-1282.1-965.6    l9.2-0.8l-1.8-10.6c0-0.2-0.1-0.7-0.2-1.6c-0.1-1-0.2-1.9-0.3-2.8c-0.3,0.8-0.6,1.6-0.9,2.4c-0.4,0.8-0.7,1.5-0.9,2.2    L-1282.1-965.6z"></path>
		<path class="st2" d="M-1212.2-959.6l5-33.1l8.9-0.8l10.2,15.9c0.3,0.4,0.6,1.1,0.9,2c0.4,1.1,0.9,2.3,1.3,3.6    c0-1.7,0.1-2.9,0.2-3.6c0.1-1.1,0.2-2,0.3-2.9l2.5-16.3l8.8-0.8l-5,33.1l-8.8,0.8l-10.2-16c-0.1-0.2-0.4-0.9-0.9-2    c-0.4-0.9-0.8-2.1-1.3-3.5c0,1.2-0.1,2.4-0.1,3.6c-0.2,1.4-0.3,2.4-0.3,2.9l-2.5,16.3L-1212.2-959.6z"></path>
		<path class="st2" d="M-1125.2-967.2l5-33.1l9.1-0.8l-2.3,15l13-15.9l10.7-0.9l-14.9,17.2l11,15.8l-11.5,1l-8.7-13.9l-2.3,14.8    L-1125.2-967.2z"></path>
		<path class="st2" d="M-1027.1-975.7l2.3-15.1l-9.1-16.9l10.6-0.9l3.2,8.1c0,0,0.1,0.1,0.1,0.3c0.3,0.8,0.5,1.6,0.6,2.4    c0.2-0.7,0.7-1.6,1.4-2.5l0.2-0.4l5.8-8.9l10.6-0.9l-14.6,19l-2.3,15.1L-1027.1-975.7z"></path>
		<path class="st2" d="M-921-1001.2c-0.4,2.4-1.1,4.7-2.3,6.8s-2.8,4.1-4.8,5.9s-4.1,3.2-6.5,4.3c-2.5,1.1-4.8,1.7-7.1,1.9    s-4.5,0-6.7-0.7c-2.1-0.7-3.9-1.8-5.3-3.2c-1.4-1.4-2.4-3.2-3.1-5.3c-0.6-2.1-0.7-4.2-0.4-6.5c0.4-2.3,1.2-4.6,2.4-6.8    c1.3-2.3,2.9-4.2,4.8-5.9c1.9-1.8,4.1-3.2,6.4-4.3c2.3-1,4.6-1.7,7.1-1.9c2.4-0.2,4.7,0,6.7,0.7c2.1,0.7,3.8,1.8,5.3,3.3    s2.5,3.3,3.1,5.3C-920.7-1005.8-920.6-1003.6-921-1001.2z M-940.5-989.9c2.5-0.2,4.8-1.3,6.8-3.3c1-1,1.8-2.1,2.3-3.3    c0.6-1.2,1-2.5,1.2-3.9c0.4-2.8-0.1-5-1.5-6.7s-3.4-2.4-5.9-2.2c-2.6,0.2-4.8,1.3-6.8,3.3c-1.9,2-3.1,4.4-3.5,7.2    c-0.4,2.9,0,5.1,1.4,6.8C-945.1-990.4-943.1-989.7-940.5-989.9z"></path>
		<path class="st2" d="M-866.3-1022.4l9.2-0.8l-2.5,16.1c-0.4,2.5-0.6,4.1-0.6,5.1c0,1.1,0.1,2,0.2,2.5c0.2,0.8,0.7,1.4,1.5,1.7    c0.8,0.4,1.9,0.5,3.1,0.4c1.2-0.1,2.4-0.4,3.3-1c0.9-0.5,1.6-1.1,2.1-2.1c0.3-0.6,0.7-1.5,1-2.6c0.3-0.9,0.6-2.6,1-5.1l0.3-2.3    l2.1-13.8l9.2-0.8l-2.7,17.5c-0.5,3.6-1.2,6.3-1.9,8.1c-0.7,1.8-1.7,3.3-2.9,4.6c-1.4,1.5-3.2,2.6-5.2,3.4    c-2.1,0.8-4.6,1.4-7.5,1.7c-3,0.3-5.4,0.1-7.2-0.4c-1.9-0.5-3.3-1.3-4.3-2.6c-0.9-1.1-1.4-2.5-1.6-4.3c-0.2-1.7,0-4.4,0.5-7.9    l0.5-3.4L-866.3-1022.4z"></path>
	</g>
	<g>
		<path class="st3" d="M-643.9-703.4c-17.8,1.3-35.5,2.9-53.2,4.4c-4.8,0.4-9.7,0.7-14.5,1.2c-2.5,0.3-3.6-0.6-3.4-3.2    c0.1-1.2,0-2.3,0-3.5c0-91,0-182,0-273c0-7,0-6.8,6.7-7.4c21.6-1.7,43.2-3.5,64.8-5.3c17.4-1.4,34.7-3,52.1-4.1    c13.6-0.9,27,0.9,39.9,5.8c21.3,8.1,35.5,23.2,42.6,44.5c7.2,21.8,6.8,43.8-0.7,65.5c-7.9,22.8-24.1,37.8-46,47    c-3.3,1.4-6.7,2.7-10.8,4.3c30,36.6,59.6,72.7,89.1,108.8c-0.9,1.9-2.5,1.5-3.7,1.5c-25.7,2.1-51.3,4.2-77,6.2    c-2.1,0.2-4.3,0.3-6.3,0.7c-3.5,0.7-5.6-0.7-7.5-3.6c-21.3-31.4-42.7-62.7-64-94.1c-1-1.5-2.2-2.9-3.3-4.4    c-0.4,0.1-0.7,0.2-1.1,0.2c0,2,0,4.1,0,6.1c0,31.6,0,63.1,0,94.7v7.1L-643.9-703.4z M-616.6-868.3c19,0.1,34.7-15.1,34.9-33.8    c0.2-19.2-15.2-35-34.2-35.1c-19.2-0.1-34.8,15.3-34.8,34.4C-650.8-883.9-635.4-868.4-616.6-868.3z"></path>
		<path class="st3" d="M-1164.3-804.2c0-45.1,0-90.2,0-135.3c0-1,0-1.9,0-2.9c0-4.7-0.4-5,4.9-5.4c31.3-2.5,62.5-5.4,93.8-7.7    c13.9-1.1,27.7-3.1,41.7-2.1c10.9,0.8,21.5,2.5,31.7,6.6c21.5,8.8,35.5,24.6,41.9,46.7c7.6,26.6,7,53.3-3,79.2    c-10.9,28.2-32.2,45.2-60.6,54c-10.4,3.2-21.1,4.8-31.9,5.8c-13.1,1.1-26.2,2.3-39.3,3.3c-5.2,0.4-4.5,0.8-4.5,5.2    c0,27.7,0,55.4,0,83.1c0,1.2-0.1,2.3,0,3.5c0.4,3.1-1,3.8-3.9,4.1c-21.8,1.7-43.6,3.6-65.4,5.4c-1,0.1-1.9,0.1-2.9,0.2    c-1.7,0.2-2.5-0.6-2.4-2.3c0.1-1.5,0-3.1,0-4.6C-1164.3-713.2-1164.3-758.7-1164.3-804.2z M-1021-857.8    c0.1-19-15.6-34.9-34.6-34.9c-18.7,0-34.4,15.6-34.6,34.3c-0.1,19,15.6,34.9,34.5,34.9C-1036.9-823.5-1021.1-839.1-1021-857.8z"></path>
		<path class="st3" d="M-1278.3-938.1c2.9-0.3,3.7,0.6,3.7,3.4c-0.1,18.6,0,37.2-0.1,55.7c0,3.8-0.2,3.9-4.5,4.3    c-15.8,1.3-31.6,2.6-47.5,3.8c-9.5,0.7-9.6,0.6-9.6,9.9c0,69.3,0,138.6,0,207.9c0,6.8,0,6.8-6.7,7.4c-20.8,1.7-41.7,3.3-62.5,5    c-5.5,0.4-5.7,1.6-5.7-5.2c0-55.4,0-110.7,0-166.1c0-15.7,0-31.4,0-47c0-5-0.1-4.9-5.2-4.5c-17.4,1.5-34.7,2.9-52.1,4.2    c-1.1,0.1-2.3,0.6-3.4-0.2c-0.8-1.2-0.4-2.6-0.4-3.9c0-17.8,0-35.6,0-53.4c0-5.1,0-5.2,4.7-5.5L-1278.3-938.1z"></path>
		<path class="st3" d="M-967.8-963.5c15.7-1.3,31.1-2.6,46.5-3.8c8.1-0.7,16.2-1.4,24.3-1.2c13.9,0.4,27.4,2.6,40,8.7    c19.5,9.3,32,24.9,37.7,45.4c7.1,25.6,6.7,51.4-2.4,76.5c-10.7,29.5-32.5,47.3-62,56.3c-10.4,3.2-21.1,4.8-31.9,5.7    c-12.1,1-24.3,1.9-36.5,2.8c-0.2,0-0.4,0-0.6,0c-6.2,0.6-6.2,0.6-6.2,6.9c0,27.3,0,54.6,0,81.9c0,1.2-0.1,2.3,0,3.5    c0.3,2.7-0.8,3.7-3.6,3.9c-19.9,1.5-39.8,3.2-59.6,4.8c-2.9,0.2-5.8,0.5-8.7,0.8c-1.9,0.2-3-0.4-2.9-2.5c0-1,0-1.9,0-2.9    c0-21.3,0-42.6,0-63.9c0-5.2,0.1-5.1,5.2-6.2c16.9-3.6,33.5-8.2,48.3-17.3c25.4-15.8,42.5-37.9,49.8-67.2c0.6-2.6,1.8-3.9,4.5-4.3    c5.6-0.9,10.9-2.5,15.9-5.2c17.8-9.4,27.2-33.4,11.1-54.7c-6.1-8.1-15.2-11-25-11.6c-5.6-0.3-5.6-0.2-7.2-5.7    c-6-20.2-17.5-36.5-35-48.3C-966.7-961.6-967.4-961.9-967.8-963.5z"></path>
		<path class="st3" d="M-1187.9-945.3c3.9-0.3,3.9-0.1,4,3.5c0,1.2,0,2.3,0,3.5c0,90.8,0,181.6,0,272.4c0,7.2,0,7-7.1,7.6    c-20.8,1.6-41.7,3.4-62.5,5.1c-1.5,0.1-3,0.7-4.6-0.1c-0.9-1.8-0.5-3.8-0.5-5.7c0-91.6,0-183.1,0-274.7c0-0.8,0.1-1.6,0-2.3    c-0.4-2.8,0.9-3.7,3.5-3.9L-1187.9-945.3z"></path>
		<path class="st3" d="M-820.8-798c0,15.6,0,30.7,0,46.1c9.9-0.8,19.3-1.5,28.7-2.2c18.9-1.5,37.8-3.1,56.7-4.7    c2.6-0.2,3.4,0.5,3.4,3c-0.1,18.8-0.1,37.6,0,56.3c0,2.9-1.2,3.6-3.8,3.8c-15.1,1.1-30.1,2.4-45.2,3.6    c-21.2,1.7-42.5,3.5-63.7,5.2c-15.6,1.3-31.3,2.6-46.9,3.9c-4.1,0.3-4.2,0.2-4.2-3.9c0-22.5,0-44.9-0.1-67.4c0-2.7,0.6-4,3.6-4.6    c8.7-1.9,17.2-4.6,25.5-7.7c16.2-6.1,30-16,41.9-28.5C-823.8-796-823.1-797.2-820.8-798z"></path>
		<path class="st3" d="M-836.9-974.1c9.7-0.8,19.3-1.7,28.8-2.5c22.4-1.9,44.7-3.6,67.1-5.5c9-0.8,9-0.9,9,8.1c0,16.4,0,32.9,0,49.3    c0,4.4,0.6,4.8-4.5,5.2c-18.9,1.4-37.8,3.1-56.7,4.6c-4.7,0.4-4.8,0.4-5.8-4c-3-13.2-8.7-25.1-17.3-35.7    c-5-6.2-10.6-11.8-17.2-16.3C-834.6-971.7-836.2-972-836.9-974.1z"></path>
		<path class="st3" d="M-818.8-801.7c0.9-1.6,1.2-2.3,1.7-2.9c11.3-14.8,17.1-31.9,20.4-50c0.6-3,1.1-6.1,1.4-9.2    c0.2-2.1,1.2-3,3.3-3.2c5-0.3,10-0.8,15-1.3c12.2-1,24.3-1.9,36.4-3c2.6-0.2,3.3,0.7,3.3,3.2c-0.1,18.8-0.1,37.5,0,56.3    c0,2.3-0.5,3.3-3.2,3.5C-766.2-806-792-803.9-818.8-801.7z"></path>
	</g>
</g>
<g>
	<g>
		<path class="st4" d="M-1261.6,127.5l3.8-25.2l-7.6,0.7l1.2-7.8l24.3-2.1l-1.2,7.8l-7.6,0.7l-3.8,25.2L-1261.6,127.5z"></path>
		<path class="st4" d="M-1193.7,121.6l5-33.1l9.2-0.8l-2,12.8l12.3-1.1l2-12.8l9.2-0.8l-5,33.1l-9.2,0.8l2.1-13.5l-12.3,1.1    l-2.1,13.5L-1193.7,121.6z"></path>
		<path class="st4" d="M-1113.1,114.6l16.7-34.1l11.5-1l6.6,32l-9.2,0.8l-0.8-5.8l-13.1,1.1l-2.7,6.1L-1113.1,114.6z M-1098.3,101.1    l9.2-0.8l-1.8-10.6c0-0.2-0.1-0.7-0.2-1.6c-0.1-1-0.2-1.9-0.3-2.8c-0.3,0.8-0.6,1.6-0.9,2.4c-0.4,0.8-0.7,1.5-0.9,2.2    L-1098.3,101.1z"></path>
		<path class="st4" d="M-1028.4,107.2l5-33.1l8.9-0.8l10.2,15.9c0.3,0.4,0.6,1.1,0.9,2c0.4,1.1,0.9,2.3,1.3,3.6    c0-1.7,0.1-2.9,0.2-3.6c0.1-1.1,0.2-2,0.3-2.9l2.5-16.3l8.8-0.8l-5,33.1l-8.8,0.8l-10.2-16c-0.1-0.2-0.4-0.9-0.9-2    c-0.4-0.9-0.8-2.1-1.3-3.5c0,1.2-0.1,2.4-0.1,3.6c-0.2,1.4-0.3,2.4-0.3,2.9l-2.5,16.3L-1028.4,107.2z"></path>
		<path class="st4" d="M-941.4,99.6l5-33.1l9.1-0.8l-2.3,15l13-15.9l10.7-0.9l-14.9,17.2l11,15.8l-11.5,1L-930,84l-2.3,14.8    L-941.4,99.6z"></path>
		<path class="st4" d="M-843.3,91l2.3-15.1l-9.1-16.9l10.6-0.9l3.2,8.1c0,0,0.1,0.1,0.1,0.3c0.3,0.8,0.5,1.6,0.6,2.4    c0.2-0.7,0.7-1.6,1.4-2.5l0.2-0.4l5.8-8.9l10.6-0.9l-14.6,19l-2.3,15.1L-843.3,91z"></path>
		<path class="st4" d="M-737.2,65.5c-0.4,2.4-1.1,4.7-2.3,6.8c-1.2,2.1-2.8,4.1-4.8,5.9s-4.1,3.2-6.5,4.3c-2.5,1.1-4.8,1.7-7.1,1.9    c-2.3,0.2-4.5,0-6.7-0.7c-2.1-0.7-3.9-1.8-5.3-3.2c-1.4-1.4-2.4-3.2-3.1-5.3c-0.6-2.1-0.7-4.2-0.4-6.5c0.4-2.3,1.2-4.6,2.4-6.8    c1.3-2.3,2.9-4.2,4.8-5.9c1.9-1.8,4.1-3.2,6.4-4.3c2.3-1,4.6-1.7,7.1-1.9c2.4-0.2,4.7,0,6.7,0.7c2.1,0.7,3.8,1.8,5.3,3.3    s2.5,3.3,3.1,5.3C-736.9,61-736.8,63.1-737.2,65.5z M-756.7,76.8c2.5-0.2,4.8-1.3,6.8-3.3c1-1,1.8-2.1,2.3-3.3    c0.6-1.2,1-2.5,1.2-3.9c0.4-2.8-0.1-5-1.5-6.7s-3.4-2.4-5.9-2.2c-2.6,0.2-4.8,1.3-6.8,3.3c-1.9,2-3.1,4.4-3.5,7.2    c-0.4,2.9,0,5.1,1.4,6.8C-761.3,76.3-759.3,77-756.7,76.8z"></path>
		<path class="st4" d="M-682.5,44.3l9.2-0.8l-2.5,16.1c-0.4,2.5-0.6,4.1-0.6,5.1c0,1.1,0.1,2,0.2,2.5c0.2,0.8,0.7,1.4,1.5,1.7    c0.8,0.4,1.9,0.5,3.1,0.4c1.2-0.1,2.4-0.4,3.3-1c0.9-0.5,1.6-1.1,2.1-2.1c0.3-0.6,0.7-1.5,1-2.6c0.3-0.9,0.6-2.6,1-5.1l0.3-2.3    l2.1-13.8l9.2-0.8l-2.7,17.5c-0.5,3.6-1.2,6.3-1.9,8.1c-0.7,1.8-1.7,3.3-2.9,4.6c-1.4,1.5-3.2,2.6-5.2,3.4    c-2.1,0.8-4.6,1.4-7.5,1.7c-3,0.3-5.4,0.1-7.2-0.4c-1.9-0.5-3.3-1.3-4.3-2.6c-0.9-1.1-1.4-2.5-1.6-4.3c-0.2-1.7,0-4.4,0.5-7.9    l0.5-3.4L-682.5,44.3z"></path>
	</g>
	<g>
		<path class="st3" d="M-460.1,363.3c-17.8,1.3-35.5,2.9-53.2,4.4c-4.8,0.4-9.7,0.7-14.5,1.2c-2.5,0.3-3.6-0.6-3.4-3.2    c0.1-1.2,0-2.3,0-3.5c0-91,0-182,0-273c0-7,0-6.8,6.7-7.4c21.6-1.7,43.2-3.5,64.8-5.3c17.4-1.4,34.7-3,52.1-4.1    c13.6-0.9,27,0.9,39.9,5.8c21.3,8.1,35.5,23.2,42.6,44.5c7.2,21.8,6.8,43.8-0.7,65.5c-7.9,22.8-24.1,37.8-46,47    c-3.3,1.4-6.7,2.7-10.8,4.3c30,36.6,59.6,72.7,89.1,108.8c-0.9,1.9-2.5,1.5-3.7,1.5c-25.7,2.1-51.3,4.2-77,6.2    c-2.1,0.2-4.3,0.3-6.3,0.7c-3.5,0.7-5.6-0.7-7.5-3.6c-21.3-31.4-42.7-62.7-64-94.1c-1-1.5-2.2-2.9-3.3-4.4    c-0.4,0.1-0.7,0.2-1.1,0.2c0,2,0,4.1,0,6.1c0,31.6,0,63.1,0,94.7v7.1L-460.1,363.3z M-432.8,198.4c19,0.1,34.7-15.1,34.9-33.8    c0.2-19.2-15.2-35-34.2-35.1c-19.2-0.1-34.8,15.3-34.8,34.4C-467,182.8-451.6,198.3-432.8,198.4z"></path>
		<path class="st3" d="M-980.5,262.6c0-45.1,0-90.2,0-135.3c0-1,0-1.9,0-2.9c0-4.7-0.4-5,4.9-5.4c31.3-2.5,62.5-5.4,93.8-7.7    c13.9-1.1,27.7-3.1,41.7-2.1c10.9,0.8,21.5,2.5,31.7,6.6c21.5,8.8,35.5,24.6,41.9,46.7c7.6,26.6,7,53.3-3,79.2    c-10.9,28.2-32.2,45.2-60.6,54c-10.4,3.2-21.1,4.8-31.9,5.8c-13.1,1.1-26.2,2.3-39.3,3.3c-5.2,0.4-4.5,0.8-4.5,5.2    c0,27.7,0,55.4,0,83.1c0,1.2-0.1,2.3,0,3.5c0.4,3.1-1,3.8-3.9,4.1c-21.8,1.7-43.6,3.6-65.4,5.4c-1,0.1-1.9,0.1-2.9,0.2    c-1.7,0.2-2.5-0.6-2.4-2.3c0.1-1.5,0-3.1,0-4.6C-980.5,353.6-980.5,308.1-980.5,262.6z M-837.2,209c0.1-19-15.6-34.9-34.6-34.9    c-18.7,0-34.4,15.6-34.6,34.3c-0.1,19,15.6,34.9,34.5,34.9C-853.1,243.3-837.3,227.7-837.2,209z"></path>
		<path class="st3" d="M-1094.5,128.6c2.9-0.3,3.7,0.6,3.7,3.4c-0.1,18.6,0,37.2-0.1,55.7c0,3.8-0.2,3.9-4.5,4.3    c-15.8,1.3-31.6,2.6-47.5,3.8c-9.5,0.7-9.6,0.6-9.6,9.9c0,69.3,0,138.6,0,207.9c0,6.8,0,6.8-6.7,7.4c-20.8,1.7-41.7,3.3-62.5,5    c-5.5,0.4-5.7,1.6-5.7-5.2c0-55.4,0-110.7,0-166.1c0-15.7,0-31.4,0-47c0-5-0.1-4.9-5.2-4.5c-17.4,1.5-34.7,2.9-52.1,4.2    c-1.1,0.1-2.3,0.6-3.4-0.2c-0.8-1.2-0.4-2.6-0.4-3.9c0-17.8,0-35.6,0-53.4c0-5.1,0-5.2,4.7-5.5L-1094.5,128.6z"></path>
		<path class="st3" d="M-784,103.2c15.7-1.3,31.1-2.6,46.5-3.8c8.1-0.7,16.2-1.4,24.3-1.2c13.9,0.4,27.4,2.6,40,8.7    c19.5,9.3,32,24.9,37.7,45.4c7.1,25.6,6.7,51.4-2.4,76.5c-10.7,29.5-32.5,47.3-62,56.3c-10.4,3.2-21.1,4.8-31.9,5.7    c-12.1,1-24.3,1.9-36.5,2.8c-0.2,0-0.4,0-0.6,0c-6.2,0.6-6.2,0.6-6.2,6.9c0,27.3,0,54.6,0,81.9c0,1.2-0.1,2.3,0,3.5    c0.3,2.7-0.8,3.7-3.6,3.9c-19.9,1.5-39.8,3.2-59.6,4.8c-2.9,0.2-5.8,0.5-8.7,0.8c-1.9,0.2-3-0.4-2.9-2.5c0-1,0-1.9,0-2.9    c0-21.3,0-42.6,0-63.9c0-5.2,0.1-5.1,5.2-6.2c16.9-3.6,33.5-8.2,48.3-17.3c25.4-15.8,42.5-37.9,49.8-67.2c0.6-2.6,1.8-3.9,4.5-4.3    c5.6-0.9,10.9-2.5,15.9-5.2c17.8-9.4,27.2-33.4,11.1-54.7c-6.1-8.1-15.2-11-25-11.6c-5.6-0.3-5.6-0.2-7.2-5.7    c-6-20.2-17.5-36.5-35-48.3C-782.9,105.1-783.6,104.8-784,103.2z"></path>
		<path class="st3" d="M-1004.1,121.4c3.9-0.3,3.9-0.1,4,3.5c0,1.2,0,2.3,0,3.5c0,90.8,0,181.6,0,272.4c0,7.2,0,7-7.1,7.6    c-20.8,1.6-41.7,3.4-62.5,5.1c-1.5,0.1-3,0.7-4.6-0.1c-0.9-1.8-0.5-3.8-0.5-5.7c0-91.6,0-183.1,0-274.7c0-0.8,0.1-1.6,0-2.3    c-0.4-2.8,0.9-3.7,3.5-3.9L-1004.1,121.4z"></path>
		<path class="st3" d="M-637,268.7c0,15.6,0,30.7,0,46.1c9.9-0.8,19.3-1.5,28.7-2.2c18.9-1.5,37.8-3.1,56.7-4.7    c2.6-0.2,3.4,0.5,3.4,3c-0.1,18.8-0.1,37.6,0,56.3c0,2.9-1.2,3.6-3.8,3.8c-15.1,1.1-30.1,2.4-45.2,3.6    c-21.2,1.7-42.5,3.5-63.7,5.2c-15.6,1.3-31.3,2.6-46.9,3.9c-4.1,0.3-4.2,0.2-4.2-3.9c0-22.5,0-44.9-0.1-67.4c0-2.7,0.6-4,3.6-4.6    c8.7-1.9,17.2-4.6,25.5-7.7c16.2-6.1,30-16,41.9-28.5C-640,270.8-639.3,269.5-637,268.7z"></path>
		<path class="st3" d="M-653.1,92.6c9.7-0.8,19.3-1.7,28.8-2.5c22.4-1.9,44.7-3.6,67.1-5.5c9-0.8,9-0.9,9,8.1c0,16.4,0,32.9,0,49.3    c0,4.4,0.6,4.8-4.5,5.2c-18.9,1.4-37.8,3.1-56.7,4.6c-4.7,0.4-4.8,0.4-5.8-4c-3-13.2-8.7-25.1-17.3-35.7    c-5-6.2-10.6-11.8-17.2-16.3C-650.8,95.1-652.4,94.7-653.1,92.6z"></path>
		<path class="st3" d="M-635,265.1c0.9-1.6,1.2-2.3,1.7-2.9c11.3-14.8,17.1-31.9,20.4-50c0.6-3,1.1-6.1,1.4-9.2    c0.2-2.1,1.2-3,3.3-3.2c5-0.3,10-0.8,15-1.3c12.2-1,24.3-1.9,36.4-3c2.6-0.2,3.3,0.7,3.3,3.2c-0.1,18.8-0.1,37.5,0,56.3    c0,2.3-0.5,3.3-3.2,3.5C-582.4,260.7-608.2,262.9-635,265.1z"></path>
	</g>
</g>
<g>
	<polygon class="st5" points="41.4,56.8 324.4,33.1 324.4,124.1 235.3,131.3 236.6,450.7 129.5,459.2 130.1,137.8 41.4,147.6  "></polygon>
	<polygon class="st2" points="16.6,40.3 299.5,16.6 299.5,107.5 210.5,114.7 211.8,434.1 104.7,442.6 105.3,121.3 16.6,131.1  "></polygon>
	<polygon class="st5" points="0,23.7 283,0 283,91 193.9,98.2 195.2,417.6 88.1,426.1 88.8,104.7 0,114.5  "></polygon>
</g>
<g>
	<polygon class="st2" points="41.4,-478.4 324.4,-502.1 324.4,-411.1 235.3,-403.9 236.6,-84.6 129.5,-76 130.1,-397.4 41.4,-387.6     "></polygon>
	<polygon class="st5" points="16.6,-494.9 299.5,-518.6 299.5,-427.7 210.5,-420.5 211.8,-101.1 104.7,-92.6 105.3,-414    16.6,-404.2  "></polygon>
	<polygon class="st2" points="0,-511.5 283,-535.2 283,-444.2 193.9,-437 195.2,-117.6 88.1,-109.1 88.8,-430.5 0,-420.7  "></polygon>
</g>
</svg>