<svg xmlns="http://www.w3.org/2000/svg" xmlns:xlink="http://www.w3.org/1999/xlink" id="Capa_1" x="0px" y="0px" viewBox="0 0 995 384.7" style="enable-background:new 0 0 995 384.7;" xml:space="preserve">
<style type="text/css">
	.st0{fill:#FFFFFF;stroke:#0C045F;stroke-miterlimit:10;}
	.st1{fill:#939598;}
	.st2{fill:#0C045F;}
	.st3{fill:#FE2D22;}
	.st4{fill:#FFFFFF;}
	.st5{fill:#FF3127;}
</style>
<g>
	<g>
		<path class="st0" d="M272.7,758.1c0,70.7-57.3,128-128,128c-70.7,0-128-57.3-128-128s57.3-128,128-128    C215.3,630.1,272.7,687.4,272.7,758.1z"></path>
		<g>
			<path class="st1" d="M164.5,749.6h-20.2v68.2h-23.4v-68.2H108v-11.3l12.9-6.3v-6.3c0-9.8,2.4-16.9,7.2-21.4     c4.8-4.5,12.5-6.7,23.1-6.7c8.1,0,15.2,1.2,21.5,3.6l-6,17.2c-4.7-1.5-9-2.2-13-2.2c-3.3,0-5.7,1-7.2,3s-2.2,4.5-2.2,7.6v5.4     h20.2V749.6z"></path>
		</g>
	</g>
	<g>
		<path class="st0" d="M607.9,758.1c0,70.7-57.3,128-128,128s-128-57.3-128-128s57.3-128,128-128    C550.7,630.1,607.9,687.4,607.9,758.1z"></path>
		<g>
			<path class="st1" d="M436.2,758.1c0-8.2,2.3-15.8,6.2-22.4v-27.8h-27.9c-11,14.3-17,31.8-17,50.2s6,35.8,17,50.2h27.8v-27.8     C438.4,773.9,436.2,766.2,436.2,758.1z"></path>
			<path class="st1" d="M480,801.8l-19.3,19.3l19.3,19.3c18.4,0,35.8-6,50.2-17v-27.8h-27.8C495.7,799.6,488.1,801.8,480,801.8z"></path>
			<path class="st1" d="M442.3,780.4l-27.8,27.8c2.2,2.8,4.6,5.6,7.1,8.1c15.6,15.6,36.3,24.1,58.3,24.1v-38.6     C464,801.8,450,793.2,442.3,780.4L442.3,780.4z"></path>
			<path class="st1" d="M562.4,758.1c0-5-0.5-10-1.3-14.9l-0.7-4h-80.3v38.6h39.1c-3.8,7.6-9.6,13.7-16.7,17.9l27.8,27.8     c2.8-2.2,5.6-4.6,8.1-7.1C553.8,800.8,562.4,780.1,562.4,758.1z"></path>
			<path class="st1" d="M510.9,727.1l3.4,3.4l27.3-27.3l-3.4-3.4c-15.6-15.6-36.3-24.1-58.3-24.1L460.6,695l19.3,19.3     C491.6,714.3,502.6,718.8,510.9,727.1z"></path>
			<path class="st1" d="M480,714.3v-38.6c-22,0-42.7,8.6-58.3,24.1c-2.6,2.6-5,5.3-7.1,8.1l27.8,27.8C450,722.9,464,714.3,480,714.3     z"></path>
		</g>
	</g>
	<g>
		<path class="st0" d="M939.1,758.1c0,70.7-57.3,128-128,128s-128-57.3-128-128s57.3-128,128-128S939.1,687.4,939.1,758.1z"></path>
		<g>
			<g>
				<g>
					<path class="st1" d="M830,699.6c4.2-4.2,6.9-8.3,9-13.2c1.7-4.9,2.8-9,2.8-13.2c0-0.3,0-0.7,0-1s0-0.7,0-1s0-0.7-0.3-1       c0-0.3-0.3-0.7-0.3-1c-11.5,2.8-19.4,7.3-23.9,14.2c-4.9,6.9-7.3,15.3-7.6,24.6c4.2-0.3,7.6-1,10.1-1.7       C823.1,705.2,826.5,703.1,830,699.6z"></path>
				</g>
				<g>
					<path class="st1" d="M862.6,773.9c-4.5-6.2-6.6-13.5-6.6-21.5c0-7.3,2.1-13.9,6.2-19.8c2.1-3.1,5.9-6.9,11.1-11.5       c-3.5-4.2-6.6-7.3-10.1-9.7c-5.9-4.2-12.8-6.2-20.5-6.2c-4.5,0-10.1,1-16.7,3.1c-6.2,2.1-10.8,3.1-13.9,3.1       c-2.1,0-6.6-1-13.2-2.8c-6.6-2.1-12.5-2.8-17-2.8c-11.1,0-20.1,4.5-27.4,13.9s-10.8,21.5-10.8,36.1c0,15.6,4.9,31.6,14.2,48.6       c9.7,16.7,19.1,25,29.2,25c3.1,0,7.6-1,12.8-3.1c5.2-2.1,9.7-3.1,13.5-3.1c4.2,0,9,1,14.6,3.1c5.9,2.1,10.4,3.1,13.5,3.1       c8.3,0,16.3-6.2,24.6-18.7c5.6-8,9.4-16,11.8-23.9C872.4,784.3,867.1,780.1,862.6,773.9z"></path>
				</g>
			</g>
		</g>
	</g>
</g>
<g>
	<g>
		<path class="st2" d="M18.7-438.5l3.8-25.2l-7.6,0.7l1.2-7.8l24.3-2.1l-1.2,7.8l-7.6,0.7l-3.8,25.2L18.7-438.5z"></path>
		<path class="st2" d="M86.6-444.4l5-33.1l9.2-0.8l-2,12.8l12.3-1.1l2-12.8l9.2-0.8l-5,33.1l-9.2,0.8l2.1-13.5l-12.3,1.1l-2.1,13.5    L86.6-444.4z"></path>
		<path class="st2" d="M167.2-451.5l16.7-34.1l11.5-1l6.6,32l-9.2,0.8l-0.8-5.8l-13.1,1.1l-2.7,6.1L167.2-451.5z M182-464.9l9.2-0.8    l-1.8-10.6c0-0.2-0.1-0.7-0.2-1.6c-0.1-1-0.2-1.9-0.3-2.8c-0.3,0.8-0.6,1.6-0.9,2.4c-0.4,0.8-0.7,1.5-0.9,2.2L182-464.9z"></path>
		<path class="st2" d="M251.9-458.9l5-33.1l8.9-0.8l10.2,15.9c0.3,0.4,0.6,1.1,0.9,2c0.4,1.1,0.9,2.3,1.3,3.6c0-1.7,0.1-2.9,0.2-3.6    c0.1-1.1,0.2-2,0.3-2.9l2.5-16.3l8.8-0.8l-5,33.1l-8.8,0.8L266-477c-0.1-0.2-0.4-0.9-0.9-2c-0.4-0.9-0.8-2.1-1.3-3.5    c0,1.2-0.1,2.4-0.1,3.6c-0.2,1.4-0.3,2.4-0.3,2.9l-2.5,16.3L251.9-458.9z"></path>
		<path class="st2" d="M338.9-466.5l5-33.1l9.1-0.8l-2.3,15l13-15.9l10.7-0.9L359.5-485l11,15.8l-11.5,1l-8.7-13.9l-2.3,14.8    L338.9-466.5z"></path>
		<path class="st2" d="M437-475l2.3-15.1l-9.1-16.9l10.6-0.9l3.2,8.1c0,0,0.1,0.1,0.1,0.3c0.3,0.8,0.5,1.6,0.6,2.4    c0.2-0.7,0.7-1.6,1.4-2.5l0.2-0.4l5.8-8.9l10.6-0.9l-14.6,19l-2.3,15.1L437-475z"></path>
		<path class="st2" d="M543.1-500.5c-0.4,2.4-1.1,4.7-2.3,6.8c-1.2,2.1-2.8,4.1-4.8,5.9s-4.1,3.2-6.5,4.3c-2.5,1.1-4.8,1.7-7.1,1.9    c-2.3,0.2-4.5,0-6.7-0.7c-2.1-0.7-3.9-1.8-5.3-3.2c-1.4-1.4-2.4-3.2-3.1-5.3c-0.6-2.1-0.7-4.2-0.4-6.5c0.4-2.3,1.2-4.6,2.4-6.8    c1.3-2.3,2.9-4.2,4.8-5.9c1.9-1.8,4.1-3.2,6.4-4.3c2.3-1,4.6-1.7,7.1-1.9c2.4-0.2,4.7,0,6.7,0.7c2.1,0.7,3.8,1.8,5.3,3.3    c1.5,1.5,2.5,3.3,3.1,5.3C543.4-505.1,543.5-502.9,543.1-500.5z M523.6-489.2c2.5-0.2,4.8-1.3,6.8-3.3c1-1,1.8-2.1,2.3-3.3    c0.6-1.2,1-2.5,1.2-3.9c0.4-2.8-0.1-5-1.5-6.7s-3.4-2.4-5.9-2.2c-2.6,0.2-4.8,1.3-6.8,3.3c-1.9,2-3.1,4.4-3.5,7.2    c-0.4,2.9,0,5.1,1.4,6.8C519-489.7,521-489,523.6-489.2z"></path>
		<path class="st2" d="M597.8-521.7l9.2-0.8l-2.5,16.1c-0.4,2.5-0.6,4.1-0.6,5.1c0,1.1,0.1,2,0.2,2.5c0.2,0.8,0.7,1.4,1.5,1.7    c0.8,0.4,1.9,0.5,3.1,0.4c1.2-0.1,2.4-0.4,3.3-1c0.9-0.5,1.6-1.1,2.1-2.1c0.3-0.6,0.7-1.5,1-2.6c0.3-0.9,0.6-2.6,1-5.1l0.3-2.3    l2.1-13.8l9.2-0.8l-2.7,17.5c-0.5,3.6-1.2,6.3-1.9,8.1c-0.7,1.8-1.7,3.3-2.9,4.6c-1.4,1.5-3.2,2.6-5.2,3.4    c-2.1,0.8-4.6,1.4-7.5,1.7c-3,0.3-5.4,0.1-7.2-0.4c-1.9-0.5-3.3-1.3-4.3-2.6c-0.9-1.1-1.4-2.5-1.6-4.3c-0.2-1.7,0-4.4,0.5-7.9    l0.5-3.4L597.8-521.7z"></path>
	</g>
	<g>
		<path class="st3" d="M820.2-202.7c-17.8,1.3-35.5,2.9-53.2,4.4c-4.8,0.4-9.7,0.7-14.5,1.2c-2.5,0.3-3.6-0.6-3.4-3.2    c0.1-1.2,0-2.3,0-3.5c0-91,0-182,0-273c0-7,0-6.8,6.7-7.4c21.6-1.7,43.2-3.5,64.8-5.3c17.4-1.4,34.7-3,52.1-4.1    c13.6-0.9,27,0.9,39.9,5.8c21.3,8.1,35.5,23.2,42.6,44.5c7.2,21.8,6.8,43.8-0.7,65.5c-7.9,22.8-24.1,37.8-46,47    c-3.3,1.4-6.7,2.7-10.8,4.3c30,36.6,59.6,72.7,89.1,108.8c-0.9,1.9-2.5,1.5-3.7,1.5c-25.7,2.1-51.3,4.2-77,6.2    c-2.1,0.2-4.3,0.3-6.3,0.7c-3.5,0.7-5.6-0.7-7.5-3.6c-21.3-31.4-42.7-62.7-64-94.1c-1-1.5-2.2-2.9-3.3-4.4    c-0.4,0.1-0.7,0.2-1.1,0.2c0,2,0,4.1,0,6.1c0,31.6,0,63.1,0,94.7v7.1L820.2-202.7z M847.5-367.6c19,0.1,34.7-15.1,34.9-33.8    c0.2-19.2-15.2-35-34.2-35.1c-19.2-0.1-34.8,15.3-34.8,34.4C813.3-383.2,828.7-367.7,847.5-367.6z"></path>
		<path class="st3" d="M299.8-303.5c0-45.1,0-90.2,0-135.3c0-1,0-1.9,0-2.9c0-4.7-0.4-5,4.9-5.4c31.3-2.5,62.5-5.4,93.8-7.7    c13.9-1.1,27.7-3.1,41.7-2.1c10.9,0.8,21.5,2.5,31.7,6.6c21.5,8.8,35.5,24.6,41.9,46.7c7.6,26.6,7,53.3-3,79.2    c-10.9,28.2-32.2,45.2-60.6,54c-10.4,3.2-21.1,4.8-31.9,5.8c-13.1,1.1-26.2,2.3-39.3,3.3c-5.2,0.4-4.5,0.8-4.5,5.2    c0,27.7,0,55.4,0,83.1c0,1.2-0.1,2.3,0,3.5c0.4,3.1-1,3.8-3.9,4.1c-21.8,1.7-43.6,3.6-65.4,5.4c-1,0.1-1.9,0.1-2.9,0.2    c-1.7,0.2-2.5-0.6-2.4-2.3c0.1-1.5,0-3.1,0-4.6C299.8-212.5,299.8-258,299.8-303.5z M443.1-357.1c0.1-19-15.6-34.9-34.6-34.9    c-18.7,0-34.4,15.6-34.6,34.3c-0.1,19,15.6,34.9,34.5,34.9C427.2-322.8,443-338.4,443.1-357.1z"></path>
		<path class="st3" d="M185.8-437.4c2.9-0.3,3.7,0.6,3.7,3.4c-0.1,18.6,0,37.2-0.1,55.7c0,3.8-0.2,3.9-4.5,4.3    c-15.8,1.3-31.6,2.6-47.5,3.8c-9.5,0.7-9.6,0.6-9.6,9.9c0,69.3,0,138.6,0,207.9c0,6.8,0,6.8-6.7,7.4c-20.8,1.7-41.7,3.3-62.5,5    c-5.5,0.4-5.7,1.6-5.7-5.2c0-55.4,0-110.7,0-166.1c0-15.7,0-31.4,0-47c0-5-0.1-4.9-5.2-4.5c-17.4,1.5-34.7,2.9-52.1,4.2    c-1.1,0.1-2.3,0.6-3.4-0.2c-0.8-1.2-0.4-2.6-0.4-3.9c0-17.8,0-35.6,0-53.4c0-5.1,0-5.2,4.7-5.5L185.8-437.4z"></path>
		<path class="st3" d="M496.3-462.8c15.7-1.3,31.1-2.6,46.5-3.8c8.1-0.7,16.2-1.4,24.3-1.2c13.9,0.4,27.4,2.6,40,8.7    c19.5,9.3,32,24.9,37.7,45.4c7.1,25.6,6.7,51.4-2.4,76.5c-10.7,29.5-32.5,47.3-62,56.3c-10.4,3.2-21.1,4.8-31.9,5.7    c-12.1,1-24.3,1.9-36.5,2.8c-0.2,0-0.4,0-0.6,0c-6.2,0.6-6.2,0.6-6.2,6.9c0,27.3,0,54.6,0,81.9c0,1.2-0.1,2.3,0,3.5    c0.3,2.7-0.8,3.7-3.6,3.9c-19.9,1.5-39.8,3.2-59.6,4.8c-2.9,0.2-5.8,0.5-8.7,0.8c-1.9,0.2-3-0.4-2.9-2.5c0-1,0-1.9,0-2.9    c0-21.3,0-42.6,0-63.9c0-5.2,0.1-5.1,5.2-6.2c16.9-3.6,33.5-8.2,48.3-17.3c25.4-15.8,42.5-37.9,49.8-67.2c0.6-2.6,1.8-3.9,4.5-4.3    c5.6-0.9,10.9-2.5,15.9-5.2c17.8-9.4,27.2-33.4,11.1-54.7c-6.1-8.1-15.2-11-25-11.6c-5.6-0.3-5.6-0.2-7.2-5.7    c-6-20.2-17.5-36.5-35-48.3C497.4-460.9,496.7-461.2,496.3-462.8z"></path>
		<path class="st3" d="M276.2-444.6c3.9-0.3,3.9-0.1,4,3.5c0,1.2,0,2.3,0,3.5c0,90.8,0,181.6,0,272.4c0,7.2,0,7-7.1,7.6    c-20.8,1.6-41.7,3.4-62.5,5.1c-1.5,0.1-3,0.7-4.6-0.1c-0.9-1.8-0.5-3.8-0.5-5.7c0-91.6,0-183.1,0-274.7c0-0.8,0.1-1.6,0-2.3    c-0.4-2.8,0.9-3.7,3.5-3.9L276.2-444.6z"></path>
		<path class="st3" d="M643.3-297.3c0,15.6,0,30.7,0,46.1c9.9-0.8,19.3-1.5,28.7-2.2c18.9-1.5,37.8-3.1,56.7-4.7    c2.6-0.2,3.4,0.5,3.4,3c-0.1,18.8-0.1,37.6,0,56.3c0,2.9-1.2,3.6-3.8,3.8c-15.1,1.1-30.1,2.4-45.2,3.6    c-21.2,1.7-42.5,3.5-63.7,5.2c-15.6,1.3-31.3,2.6-46.9,3.9c-4.1,0.3-4.2,0.2-4.2-3.9c0-22.5,0-44.9-0.1-67.4c0-2.7,0.6-4,3.6-4.6    c8.7-1.9,17.2-4.6,25.5-7.7c16.2-6.1,30-16,41.9-28.5C640.3-295.3,641-296.5,643.3-297.3z"></path>
		<path class="st3" d="M627.2-473.4c9.7-0.8,19.3-1.7,28.8-2.5c22.4-1.9,44.7-3.6,67.1-5.5c9-0.8,9-0.9,9,8.1c0,16.4,0,32.9,0,49.3    c0,4.4,0.6,4.8-4.5,5.2c-18.9,1.4-37.8,3.1-56.7,4.6c-4.7,0.4-4.8,0.4-5.8-4c-3-13.2-8.7-25.1-17.3-35.7    c-5-6.2-10.6-11.8-17.2-16.3C629.5-471,627.9-471.3,627.2-473.4z"></path>
		<path class="st3" d="M645.3-301c0.9-1.6,1.2-2.3,1.7-2.9c11.3-14.8,17.1-31.9,20.4-50c0.6-3,1.1-6.1,1.4-9.2    c0.2-2.1,1.2-3,3.3-3.2c5-0.3,10-0.8,15-1.3c12.2-1,24.3-1.9,36.4-3c2.6-0.2,3.3,0.7,3.3,3.2c-0.1,18.8-0.1,37.5,0,56.3    c0,2.3-0.5,3.3-3.2,3.5C697.9-305.3,672.1-303.2,645.3-301z"></path>
	</g>
</g>
<g>
	<g>
		<path class="st4" d="M26.9,85.9l3.8-25.2l-7.6,0.7l1.2-7.8l24.3-2.1l-1.2,7.8L39.8,60L36,85.2L26.9,85.9z"></path>
		<path class="st4" d="M94.8,80l5-33.1l9.2-0.8l-2,12.8l12.3-1.1l2-12.8l9.2-0.8l-5,33.1l-9.2,0.8l2.1-13.5l-12.3,1.1L104,79.2    L94.8,80z"></path>
		<path class="st4" d="M175.4,73l16.7-34.1l11.5-1l6.6,32l-9.2,0.8l-0.8-5.8L187.1,66l-2.7,6.1L175.4,73z M190.2,59.5l9.2-0.8    l-1.8-10.6c0-0.2-0.1-0.7-0.2-1.6c-0.1-1-0.2-1.9-0.3-2.8c-0.3,0.8-0.6,1.6-0.9,2.4c-0.4,0.8-0.7,1.5-0.9,2.2L190.2,59.5z"></path>
		<path class="st4" d="M260.1,65.6l5-33.1l8.9-0.8l10.2,15.9c0.3,0.4,0.6,1.1,0.9,2c0.4,1.1,0.9,2.3,1.3,3.6c0-1.7,0.1-2.9,0.2-3.6    c0.1-1.1,0.2-2,0.3-2.9l2.5-16.3l8.8-0.8l-5,33.1l-8.8,0.8l-10.2-16c-0.1-0.2-0.4-0.9-0.9-2c-0.4-0.9-0.8-2.1-1.3-3.5    c0,1.2-0.1,2.4-0.1,3.6c-0.2,1.4-0.3,2.4-0.3,2.9l-2.5,16.3L260.1,65.6z"></path>
		<path class="st4" d="M347.1,58l5-33.1l9.1-0.8l-2.3,15l13-15.9l10.7-0.9l-14.9,17.2l11,15.8l-11.5,1l-8.7-13.9l-2.3,14.8L347.1,58    z"></path>
		<path class="st4" d="M445.2,49.4l2.3-15.1l-9.1-16.9l10.6-0.9l3.2,8.1c0,0,0.1,0.1,0.1,0.3c0.3,0.8,0.5,1.6,0.6,2.4    c0.2-0.7,0.7-1.6,1.4-2.5l0.2-0.4l5.8-8.9l10.6-0.9l-14.6,19L454,48.7L445.2,49.4z"></path>
		<path class="st4" d="M551.3,23.9c-0.4,2.4-1.1,4.7-2.3,6.8c-1.2,2.1-2.8,4.1-4.8,5.9s-4.1,3.2-6.5,4.3c-2.5,1.1-4.8,1.7-7.1,1.9    c-2.3,0.2-4.5,0-6.7-0.7c-2.1-0.7-3.9-1.8-5.3-3.2c-1.4-1.4-2.4-3.2-3.1-5.3c-0.6-2.1-0.7-4.2-0.4-6.5c0.4-2.3,1.2-4.6,2.4-6.8    c1.3-2.3,2.9-4.2,4.8-5.9c1.9-1.8,4.1-3.2,6.4-4.3c2.3-1,4.6-1.7,7.1-1.9c2.4-0.2,4.7,0,6.7,0.7c2.1,0.7,3.8,1.8,5.3,3.3    s2.5,3.3,3.1,5.3C551.6,19.4,551.7,21.5,551.3,23.9z M531.8,35.2c2.5-0.2,4.8-1.3,6.8-3.3c1-1,1.8-2.1,2.3-3.3    c0.6-1.2,1-2.5,1.2-3.9c0.4-2.8-0.1-5-1.5-6.7s-3.4-2.4-5.9-2.2c-2.6,0.2-4.8,1.3-6.8,3.3c-1.9,2-3.1,4.4-3.5,7.2    c-0.4,2.9,0,5.1,1.4,6.8C527.2,34.7,529.2,35.4,531.8,35.2z"></path>
		<path class="st4" d="M606,2.7l9.2-0.8L612.7,18c-0.4,2.5-0.6,4.1-0.6,5.1c0,1.1,0.1,2,0.2,2.5c0.2,0.8,0.7,1.4,1.5,1.7    c0.8,0.4,1.9,0.5,3.1,0.4c1.2-0.1,2.4-0.4,3.3-1c0.9-0.5,1.6-1.1,2.1-2.1c0.3-0.6,0.7-1.5,1-2.6c0.3-0.9,0.6-2.6,1-5.1l0.3-2.3    l2.1-13.8l9.2-0.8l-2.7,17.5c-0.5,3.6-1.2,6.3-1.9,8.1c-0.7,1.8-1.7,3.3-2.9,4.6c-1.4,1.5-3.2,2.6-5.2,3.4    c-2.1,0.8-4.6,1.4-7.5,1.7c-3,0.3-5.4,0.1-7.2-0.4c-1.9-0.5-3.3-1.3-4.3-2.6c-0.9-1.1-1.4-2.5-1.6-4.3c-0.2-1.7,0-4.4,0.5-7.9    l0.5-3.4L606,2.7z"></path>
	</g>
	<g>
		<path class="st3" d="M828.4,321.7c-17.8,1.3-35.5,2.9-53.2,4.4c-4.8,0.4-9.7,0.7-14.5,1.2c-2.5,0.3-3.6-0.6-3.4-3.2    c0.1-1.2,0-2.3,0-3.5c0-91,0-182,0-273c0-7,0-6.8,6.7-7.4c21.6-1.7,43.2-3.5,64.8-5.3c17.4-1.4,34.7-3,52.1-4.1    c13.6-0.9,27,0.9,39.9,5.8c21.3,8.1,35.5,23.2,42.6,44.5c7.2,21.8,6.8,43.8-0.7,65.5c-7.9,22.8-24.1,37.8-46,47    c-3.3,1.4-6.7,2.7-10.8,4.3c30,36.6,59.6,72.7,89.1,108.8c-0.9,1.9-2.5,1.5-3.7,1.5c-25.7,2.1-51.3,4.2-77,6.2    c-2.1,0.2-4.3,0.3-6.3,0.7c-3.5,0.7-5.6-0.7-7.5-3.6c-21.3-31.4-42.7-62.7-64-94.1c-1-1.5-2.2-2.9-3.3-4.4    c-0.4,0.1-0.7,0.2-1.1,0.2c0,2,0,4.1,0,6.1c0,31.6,0,63.1,0,94.7v7.1L828.4,321.7z M855.7,156.8c19,0.1,34.7-15.1,34.9-33.8    c0.2-19.2-15.2-35-34.2-35.1c-19.2-0.1-34.8,15.3-34.8,34.4C821.5,141.2,836.9,156.7,855.7,156.8z"></path>
		<path class="st3" d="M308,221c0-45.1,0-90.2,0-135.3c0-1,0-1.9,0-2.9c0-4.7-0.4-5,4.9-5.4c31.3-2.5,62.5-5.4,93.8-7.7    c13.9-1.1,27.7-3.1,41.7-2.1c10.9,0.8,21.5,2.5,31.7,6.6c21.5,8.8,35.5,24.6,41.9,46.7c7.6,26.6,7,53.3-3,79.2    c-10.9,28.2-32.2,45.2-60.6,54c-10.4,3.2-21.1,4.8-31.9,5.8c-13.1,1.1-26.2,2.3-39.3,3.3c-5.2,0.4-4.5,0.8-4.5,5.2    c0,27.7,0,55.4,0,83.1c0,1.2-0.1,2.3,0,3.5c0.4,3.1-1,3.8-3.9,4.1c-21.8,1.7-43.6,3.6-65.4,5.4c-1,0.1-1.9,0.1-2.9,0.2    c-1.7,0.2-2.5-0.6-2.4-2.3c0.1-1.5,0-3.1,0-4.6C308,312,308,266.5,308,221z M451.3,167.4c0.1-19-15.6-34.9-34.6-34.9    c-18.7,0-34.4,15.6-34.6,34.3c-0.1,19,15.6,34.9,34.5,34.9C435.4,201.7,451.2,186.1,451.3,167.4z"></path>
		<path class="st3" d="M194,87c2.9-0.3,3.7,0.6,3.7,3.4c-0.1,18.6,0,37.2-0.1,55.7c0,3.8-0.2,3.9-4.5,4.3    c-15.8,1.3-31.6,2.6-47.5,3.8c-9.5,0.7-9.6,0.6-9.6,9.9c0,69.3,0,138.6,0,207.9c0,6.8,0,6.8-6.7,7.4c-20.8,1.7-41.7,3.3-62.5,5    c-5.5,0.4-5.7,1.6-5.7-5.2c0-55.4,0-110.7,0-166.1c0-15.7,0-31.4,0-47c0-5-0.1-4.9-5.2-4.5c-17.4,1.5-34.7,2.9-52.1,4.2    c-1.1,0.1-2.3,0.6-3.4-0.2c-0.8-1.2-0.4-2.6-0.4-3.9c0-17.8,0-35.6,0-53.4c0-5.1,0-5.2,4.7-5.5L194,87z"></path>
		<path class="st3" d="M504.5,61.6c15.7-1.3,31.1-2.6,46.5-3.8c8.1-0.7,16.2-1.4,24.3-1.2c13.9,0.4,27.4,2.6,40,8.7    c19.5,9.3,32,24.9,37.7,45.4c7.1,25.6,6.7,51.4-2.4,76.5c-10.7,29.5-32.5,47.3-62,56.3c-10.4,3.2-21.1,4.8-31.9,5.7    c-12.1,1-24.3,1.9-36.5,2.8c-0.2,0-0.4,0-0.6,0c-6.2,0.6-6.2,0.6-6.2,6.9c0,27.3,0,54.6,0,81.9c0,1.2-0.1,2.3,0,3.5    c0.3,2.7-0.8,3.7-3.6,3.9c-19.9,1.5-39.8,3.2-59.6,4.8c-2.9,0.2-5.8,0.5-8.7,0.8c-1.9,0.2-3-0.4-2.9-2.5c0-1,0-1.9,0-2.9    c0-21.3,0-42.6,0-63.9c0-5.2,0.1-5.1,5.2-6.2c16.9-3.6,33.5-8.2,48.3-17.3c25.4-15.8,42.5-37.9,49.8-67.2c0.6-2.6,1.8-3.9,4.5-4.3    c5.6-0.9,10.9-2.5,15.9-5.2c17.8-9.4,27.2-33.4,11.1-54.7c-6.1-8.1-15.2-11-25-11.6c-5.6-0.3-5.6-0.2-7.2-5.7    c-6-20.2-17.5-36.5-35-48.3C505.6,63.5,504.9,63.2,504.5,61.6z"></path>
		<path class="st3" d="M284.4,79.8c3.9-0.3,3.9-0.1,4,3.5c0,1.2,0,2.3,0,3.5c0,90.8,0,181.6,0,272.4c0,7.2,0,7-7.1,7.6    c-20.8,1.6-41.7,3.4-62.5,5.1c-1.5,0.1-3,0.7-4.6-0.1c-0.9-1.8-0.5-3.8-0.5-5.7c0-91.6,0-183.1,0-274.7c0-0.8,0.1-1.6,0-2.3    c-0.4-2.8,0.9-3.7,3.5-3.9L284.4,79.8z"></path>
		<path class="st3" d="M651.5,227.1c0,15.6,0,30.7,0,46.1c9.9-0.8,19.3-1.5,28.7-2.2c18.9-1.5,37.8-3.1,56.7-4.7    c2.6-0.2,3.4,0.5,3.4,3c-0.1,18.8-0.1,37.6,0,56.3c0,2.9-1.2,3.6-3.8,3.8c-15.1,1.1-30.1,2.4-45.2,3.6    c-21.2,1.7-42.5,3.5-63.7,5.2c-15.6,1.3-31.3,2.6-46.9,3.9c-4.1,0.3-4.2,0.2-4.2-3.9c0-22.5,0-44.9-0.1-67.4c0-2.7,0.6-4,3.6-4.6    c8.7-1.9,17.2-4.6,25.5-7.7c16.2-6.1,30-16,41.9-28.5C648.5,229.2,649.2,227.9,651.5,227.1z"></path>
		<path class="st3" d="M635.4,51c9.7-0.8,19.3-1.7,28.8-2.5c22.4-1.9,44.7-3.6,67.1-5.5c9-0.8,9-0.9,9,8.1c0,16.4,0,32.9,0,49.3    c0,4.4,0.6,4.8-4.5,5.2c-18.9,1.4-37.8,3.1-56.7,4.6c-4.7,0.4-4.8,0.4-5.8-4c-3-13.2-8.7-25.1-17.3-35.7    c-5-6.2-10.6-11.8-17.2-16.3C637.7,53.5,636.1,53.1,635.4,51z"></path>
		<path class="st3" d="M653.5,223.5c0.9-1.6,1.2-2.3,1.7-2.9c11.3-14.8,17.1-31.9,20.4-50c0.6-3,1.1-6.1,1.4-9.2    c0.2-2.1,1.2-3,3.3-3.2c5-0.3,10-0.8,15-1.3c12.2-1,24.3-1.9,36.4-3c2.6-0.2,3.3,0.7,3.3,3.2c-0.1,18.8-0.1,37.5,0,56.3    c0,2.3-0.5,3.3-3.2,3.5C706.1,219.1,680.3,221.3,653.5,223.5z"></path>
	</g>
</g>
<g>
	<polygon class="st5" points="1321.7,30.4 1604.7,6.7 1604.7,97.7 1515.6,104.9 1516.9,424.3 1409.8,432.8 1410.4,111.4    1321.7,121.2  "></polygon>
	<polygon class="st2" points="1296.9,13.9 1579.8,-9.8 1579.8,81.1 1490.8,88.3 1492.1,407.7 1385,416.2 1385.6,94.9 1296.9,104.7     "></polygon>
	<polygon class="st5" points="1280.3,-2.7 1563.3,-26.4 1563.3,64.6 1474.2,71.8 1475.5,391.2 1368.4,399.7 1369.1,78.3    1280.3,88.1  "></polygon>
</g>
<g>
	<polygon class="st2" points="1321.7,-504.8 1604.7,-528.5 1604.7,-437.5 1515.6,-430.3 1516.9,-111 1409.8,-102.4 1410.4,-423.8    1321.7,-414  "></polygon>
	<polygon class="st5" points="1296.9,-521.3 1579.8,-545 1579.8,-454.1 1490.8,-446.9 1492.1,-127.5 1385,-119 1385.6,-440.4    1296.9,-430.6  "></polygon>
	<polygon class="st2" points="1280.3,-537.9 1563.3,-561.6 1563.3,-470.6 1474.2,-463.4 1475.5,-144 1368.4,-135.5 1369.1,-456.9    1280.3,-447.1  "></polygon>
</g>
</svg>