<svg xmlns="http://www.w3.org/2000/svg" xmlns:xlink="http://www.w3.org/1999/xlink" id="Capa_1" x="0px" y="0px" viewBox="0 0 995 384.7" style="enable-background:new 0 0 995 384.7;" xml:space="preserve">
<style type="text/css">
	.st0{fill:#FFFFFF;stroke:#0C045F;stroke-miterlimit:10;}
	.st1{fill:#939598;}
	.st2{fill:#0C045F;}
	.st3{fill:#FE2D22;}
	.st4{fill:#FFFFFF;}
	.st5{fill:#FF3127;}
</style>
<g>
	<g>
		<path class="st0" d="M464.7,1809.6c0,70.7-57.3,128-128,128c-70.7,0-128-57.3-128-128c0-70.7,57.3-128,128-128    C407.3,1681.6,464.7,1738.9,464.7,1809.6z"></path>
		<g>
			<path class="st1" d="M356.5,1801.1h-20.2v68.2h-23.4v-68.2H300v-11.3l12.9-6.3v-6.3c0-9.8,2.4-16.9,7.2-21.4     c4.8-4.5,12.5-6.7,23.1-6.7c8.1,0,15.2,1.2,21.5,3.6l-6,17.2c-4.7-1.5-9-2.2-13-2.2c-3.3,0-5.7,1-7.2,3s-2.2,4.5-2.2,7.6v5.4     h20.2V1801.1z"></path>
		</g>
	</g>
	<g>
		<path class="st0" d="M799.9,1809.6c0,70.7-57.3,128-128,128s-128-57.3-128-128c0-70.7,57.3-128,128-128    C742.7,1681.6,799.9,1738.9,799.9,1809.6z"></path>
		<g>
			<path class="st1" d="M628.2,1809.6c0-8.2,2.3-15.8,6.2-22.4v-27.8h-27.9c-11,14.3-17,31.8-17,50.2s6,35.8,17,50.2h27.8V1832     C630.4,1825.4,628.2,1817.7,628.2,1809.6z"></path>
			<path class="st1" d="M672,1853.3l-19.3,19.3l19.3,19.3c18.4,0,35.8-6,50.2-17v-27.8h-27.8C687.7,1851.1,680.1,1853.3,672,1853.3z     "></path>
			<path class="st1" d="M634.3,1831.9l-27.8,27.8c2.2,2.8,4.6,5.6,7.1,8.1c15.6,15.6,36.3,24.1,58.3,24.1v-38.6     C656,1853.3,642,1844.7,634.3,1831.9L634.3,1831.9z"></path>
			<path class="st1" d="M754.4,1809.6c0-5-0.5-10-1.3-14.9l-0.7-4h-80.3v38.6h39.1c-3.8,7.6-9.6,13.7-16.7,17.9l27.8,27.8     c2.8-2.2,5.6-4.6,8.1-7.1C745.8,1852.3,754.4,1831.6,754.4,1809.6z"></path>
			<path class="st1" d="M702.9,1778.6l3.4,3.4l27.3-27.3l-3.4-3.4c-15.6-15.6-36.3-24.1-58.3-24.1l-19.3,19.3l19.3,19.3     C683.6,1765.8,694.6,1770.3,702.9,1778.6z"></path>
			<path class="st1" d="M672,1765.8v-38.6c-22,0-42.7,8.6-58.3,24.1c-2.6,2.6-5,5.3-7.1,8.1l27.8,27.8     C642,1774.4,656,1765.8,672,1765.8z"></path>
		</g>
	</g>
	<g>
		<path class="st0" d="M1131.1,1809.6c0,70.7-57.3,128-128,128s-128-57.3-128-128c0-70.7,57.3-128,128-128    S1131.1,1738.9,1131.1,1809.6z"></path>
		<g>
			<g>
				<g>
					<path class="st1" d="M1022,1751.1c4.2-4.2,6.9-8.3,9-13.2c1.7-4.9,2.8-9,2.8-13.2c0-0.3,0-0.7,0-1c0-0.3,0-0.7,0-1       c0-0.3,0-0.7-0.3-1c0-0.3-0.3-0.7-0.3-1c-11.5,2.8-19.4,7.3-23.9,14.2c-4.9,6.9-7.3,15.3-7.6,24.6c4.2-0.3,7.6-1,10.1-1.7       C1015.1,1756.7,1018.5,1754.6,1022,1751.1z"></path>
				</g>
				<g>
					<path class="st1" d="M1054.6,1825.4c-4.5-6.2-6.6-13.5-6.6-21.5c0-7.3,2.1-13.9,6.2-19.8c2.1-3.1,5.9-6.9,11.1-11.5       c-3.5-4.2-6.6-7.3-10.1-9.7c-5.9-4.2-12.8-6.2-20.5-6.2c-4.5,0-10.1,1-16.7,3.1c-6.2,2.1-10.8,3.1-13.9,3.1       c-2.1,0-6.6-1-13.2-2.8c-6.6-2.1-12.5-2.8-17-2.8c-11.1,0-20.1,4.5-27.4,13.9s-10.8,21.5-10.8,36.1c0,15.6,4.9,31.6,14.2,48.6       c9.7,16.7,19.1,25,29.2,25c3.1,0,7.6-1,12.8-3.1s9.7-3.1,13.5-3.1c4.2,0,9,1,14.6,3.1c5.9,2.1,10.4,3.1,13.5,3.1       c8.3,0,16.3-6.2,24.6-18.7c5.6-8,9.4-16,11.8-23.9C1064.4,1835.8,1059.1,1831.6,1054.6,1825.4z"></path>
				</g>
			</g>
		</g>
	</g>
</g>
<g>
	<g>
		<path class="st2" d="M26.9,85.9l3.8-25.2l-7.6,0.7l1.2-7.8l24.3-2.1l-1.2,7.8L39.8,60L36,85.2L26.9,85.9z"></path>
		<path class="st2" d="M94.8,80l5-33.1l9.2-0.8l-2,12.8l12.3-1.1l2-12.8l9.2-0.8l-5,33.1l-9.2,0.8l2.1-13.5l-12.3,1.1L104,79.2    L94.8,80z"></path>
		<path class="st2" d="M175.4,72.9l16.7-34.1l11.5-1l6.6,32l-9.2,0.8l-0.8-5.8l-13.1,1.1l-2.7,6.1L175.4,72.9z M190.2,59.5l9.2-0.8    l-1.8-10.6c0-0.2-0.1-0.7-0.2-1.6c-0.1-1-0.2-1.9-0.3-2.8c-0.3,0.8-0.6,1.6-0.9,2.4c-0.4,0.8-0.7,1.5-0.9,2.2L190.2,59.5z"></path>
		<path class="st2" d="M260.1,65.5l5-33.1l8.9-0.8l10.2,15.9c0.3,0.4,0.6,1.1,0.9,2c0.4,1.1,0.9,2.3,1.3,3.6c0-1.7,0.1-2.9,0.2-3.6    c0.1-1.1,0.2-2,0.3-2.9l2.5-16.3l8.8-0.8l-5,33.1l-8.8,0.8l-10.2-16c-0.1-0.2-0.4-0.9-0.9-2c-0.4-0.9-0.8-2.1-1.3-3.5    c0,1.2-0.1,2.4-0.1,3.6c-0.2,1.4-0.3,2.4-0.3,2.9l-2.5,16.3L260.1,65.5z"></path>
		<path class="st2" d="M347.1,57.9l5-33.1l9.1-0.8l-2.3,15l13-15.9l10.7-0.9l-14.9,17.2l11,15.8l-11.5,1l-8.7-13.9l-2.3,14.8    L347.1,57.9z"></path>
		<path class="st2" d="M445.2,49.4l2.3-15.1l-9.1-16.9l10.6-0.9l3.2,8.1c0,0,0.1,0.1,0.1,0.3c0.3,0.8,0.5,1.6,0.6,2.4    c0.2-0.7,0.7-1.6,1.4-2.5l0.2-0.4l5.8-8.9l10.6-0.9l-14.6,19L454,48.7L445.2,49.4z"></path>
		<path class="st2" d="M551.3,23.9c-0.4,2.4-1.1,4.7-2.3,6.8c-1.2,2.1-2.8,4.1-4.8,5.9s-4.1,3.2-6.5,4.3c-2.5,1.1-4.8,1.7-7.1,1.9    c-2.3,0.2-4.5,0-6.7-0.7c-2.1-0.7-3.9-1.8-5.3-3.2c-1.4-1.4-2.4-3.2-3.1-5.3c-0.6-2.1-0.7-4.2-0.4-6.5c0.4-2.3,1.2-4.6,2.4-6.8    c1.3-2.3,2.9-4.2,4.8-5.9c1.9-1.8,4.1-3.2,6.4-4.3c2.3-1,4.6-1.7,7.1-1.9c2.4-0.2,4.7,0,6.7,0.7c2.1,0.7,3.8,1.8,5.3,3.3    s2.5,3.3,3.1,5.3C551.6,19.3,551.7,21.5,551.3,23.9z M531.8,35.2c2.5-0.2,4.8-1.3,6.8-3.3c1-1,1.8-2.1,2.3-3.3    c0.6-1.2,1-2.5,1.2-3.9c0.4-2.8-0.1-5-1.5-6.7s-3.4-2.4-5.9-2.2c-2.6,0.2-4.8,1.3-6.8,3.3c-1.9,2-3.1,4.4-3.5,7.2    c-0.4,2.9,0,5.1,1.4,6.8C527.2,34.7,529.2,35.4,531.8,35.2z"></path>
		<path class="st2" d="M606,2.7l9.2-0.8L612.7,18c-0.4,2.5-0.6,4.1-0.6,5.1c0,1.1,0.1,2,0.2,2.5c0.2,0.8,0.7,1.4,1.5,1.7    c0.8,0.4,1.9,0.5,3.1,0.4c1.2-0.1,2.4-0.4,3.3-1c0.9-0.5,1.6-1.1,2.1-2.1c0.3-0.6,0.7-1.5,1-2.6c0.3-0.9,0.6-2.6,1-5.1l0.3-2.3    l2.1-13.8l9.2-0.8l-2.7,17.5c-0.5,3.6-1.2,6.3-1.9,8.1c-0.7,1.8-1.7,3.3-2.9,4.6c-1.4,1.5-3.2,2.6-5.2,3.4    c-2.1,0.8-4.6,1.4-7.5,1.7c-3,0.3-5.4,0.1-7.2-0.4c-1.9-0.5-3.3-1.3-4.3-2.6c-0.9-1.1-1.4-2.5-1.6-4.3c-0.2-1.7,0-4.4,0.5-7.9    l0.5-3.4L606,2.7z"></path>
	</g>
	<g>
		<path class="st3" d="M828.4,321.7c-17.8,1.3-35.5,2.9-53.2,4.4c-4.8,0.4-9.7,0.7-14.5,1.2c-2.5,0.3-3.6-0.6-3.4-3.2    c0.1-1.2,0-2.3,0-3.5c0-91,0-182,0-273c0-7,0-6.8,6.7-7.4c21.6-1.7,43.2-3.5,64.8-5.3c17.4-1.4,34.7-3,52.1-4.1    c13.6-0.9,27,0.9,39.9,5.8c21.3,8.1,35.5,23.2,42.6,44.5c7.2,21.8,6.8,43.8-0.7,65.5c-7.9,22.8-24.1,37.8-46,47    c-3.3,1.4-6.7,2.7-10.8,4.3c30,36.6,59.6,72.7,89.1,108.8c-0.9,1.9-2.5,1.5-3.7,1.5c-25.7,2.1-51.3,4.2-77,6.2    c-2.1,0.2-4.3,0.3-6.3,0.7c-3.5,0.7-5.6-0.7-7.5-3.6c-21.3-31.4-42.7-62.7-64-94.1c-1-1.5-2.2-2.9-3.3-4.4    c-0.4,0.1-0.7,0.2-1.1,0.2c0,2,0,4.1,0,6.1c0,31.6,0,63.1,0,94.7v7.1L828.4,321.7z M855.7,156.8c19,0.1,34.7-15.1,34.9-33.8    c0.2-19.2-15.2-35-34.2-35.1c-19.2-0.1-34.8,15.3-34.8,34.4C821.5,141.2,836.9,156.7,855.7,156.8z"></path>
		<path class="st3" d="M308,220.9c0-45.1,0-90.2,0-135.3c0-1,0-1.9,0-2.9c0-4.7-0.4-5,4.9-5.4c31.3-2.5,62.5-5.4,93.8-7.7    c13.9-1.1,27.7-3.1,41.7-2.1c10.9,0.8,21.5,2.5,31.7,6.6c21.5,8.8,35.5,24.6,41.9,46.7c7.6,26.6,7,53.3-3,79.2    c-10.9,28.2-32.2,45.2-60.6,54c-10.4,3.2-21.1,4.8-31.9,5.8c-13.1,1.1-26.2,2.3-39.3,3.3c-5.2,0.4-4.5,0.8-4.5,5.2    c0,27.7,0,55.4,0,83.1c0,1.2-0.1,2.3,0,3.5c0.4,3.1-1,3.8-3.9,4.1c-21.8,1.7-43.6,3.6-65.4,5.4c-1,0.1-1.9,0.1-2.9,0.2    c-1.7,0.2-2.5-0.6-2.4-2.3c0.1-1.5,0-3.1,0-4.6C308,311.9,308,266.4,308,220.9z M451.3,167.3c0.1-19-15.6-34.9-34.6-34.9    c-18.7,0-34.4,15.6-34.6,34.3c-0.1,19,15.6,34.9,34.5,34.9C435.4,201.6,451.2,186,451.3,167.3z"></path>
		<path class="st3" d="M194,87c2.9-0.3,3.7,0.6,3.7,3.4c-0.1,18.6,0,37.2-0.1,55.7c0,3.8-0.2,3.9-4.5,4.3    c-15.8,1.3-31.6,2.6-47.5,3.8c-9.5,0.7-9.6,0.6-9.6,9.9c0,69.3,0,138.6,0,207.9c0,6.8,0,6.8-6.7,7.4c-20.8,1.7-41.7,3.3-62.5,5    c-5.5,0.4-5.7,1.6-5.7-5.2c0-55.4,0-110.7,0-166.1c0-15.7,0-31.4,0-47c0-5-0.1-4.9-5.2-4.5c-17.4,1.5-34.7,2.9-52.1,4.2    c-1.1,0.1-2.3,0.6-3.4-0.2c-0.8-1.2-0.4-2.6-0.4-3.9c0-17.8,0-35.6,0-53.4c0-5.1,0-5.2,4.7-5.5L194,87z"></path>
		<path class="st3" d="M504.5,61.6c15.7-1.3,31.1-2.6,46.5-3.8c8.1-0.7,16.2-1.4,24.3-1.2c13.9,0.4,27.4,2.6,40,8.7    c19.5,9.3,32,24.9,37.7,45.4c7.1,25.6,6.7,51.4-2.4,76.5c-10.7,29.5-32.5,47.3-62,56.3c-10.4,3.2-21.1,4.8-31.9,5.7    c-12.1,1-24.3,1.9-36.5,2.8c-0.2,0-0.4,0-0.6,0c-6.2,0.6-6.2,0.6-6.2,6.9c0,27.3,0,54.6,0,81.9c0,1.2-0.1,2.3,0,3.5    c0.3,2.7-0.8,3.7-3.6,3.9c-19.9,1.5-39.8,3.2-59.6,4.8c-2.9,0.2-5.8,0.5-8.7,0.8c-1.9,0.2-3-0.4-2.9-2.5c0-1,0-1.9,0-2.9    c0-21.3,0-42.6,0-63.9c0-5.2,0.1-5.1,5.2-6.2c16.9-3.6,33.5-8.2,48.3-17.3c25.4-15.8,42.5-37.9,49.8-67.2c0.6-2.6,1.8-3.9,4.5-4.3    c5.6-0.9,10.9-2.5,15.9-5.2c17.8-9.4,27.2-33.4,11.1-54.7c-6.1-8.1-15.2-11-25-11.6c-5.6-0.3-5.6-0.2-7.2-5.7    c-6-20.2-17.5-36.5-35-48.3C505.6,63.5,504.9,63.2,504.5,61.6z"></path>
		<path class="st3" d="M284.4,79.8c3.9-0.3,3.9-0.1,4,3.5c0,1.2,0,2.3,0,3.5c0,90.8,0,181.6,0,272.4c0,7.2,0,7-7.1,7.6    c-20.8,1.6-41.7,3.4-62.5,5.1c-1.5,0.1-3,0.7-4.6-0.1c-0.9-1.8-0.5-3.8-0.5-5.7c0-91.6,0-183.1,0-274.7c0-0.8,0.1-1.6,0-2.3    c-0.4-2.8,0.9-3.7,3.5-3.9L284.4,79.8z"></path>
		<path class="st3" d="M651.5,227.1c0,15.6,0,30.7,0,46.1c9.9-0.8,19.3-1.5,28.7-2.2c18.9-1.5,37.8-3.1,56.7-4.7    c2.6-0.2,3.4,0.5,3.4,3c-0.1,18.8-0.1,37.6,0,56.3c0,2.9-1.2,3.6-3.8,3.8c-15.1,1.1-30.1,2.4-45.2,3.6    c-21.2,1.7-42.5,3.5-63.7,5.2c-15.6,1.3-31.3,2.6-46.9,3.9c-4.1,0.3-4.2,0.2-4.2-3.9c0-22.5,0-44.9-0.1-67.4c0-2.7,0.6-4,3.6-4.6    c8.7-1.9,17.2-4.6,25.5-7.7c16.2-6.1,30-16,41.9-28.5C648.5,229.1,649.2,227.9,651.5,227.1z"></path>
		<path class="st3" d="M635.4,51c9.7-0.8,19.3-1.7,28.8-2.5c22.4-1.9,44.7-3.6,67.1-5.5c9-0.8,9-0.9,9,8.1c0,16.4,0,32.9,0,49.3    c0,4.4,0.6,4.8-4.5,5.2c-18.9,1.4-37.8,3.1-56.7,4.6c-4.7,0.4-4.8,0.4-5.8-4c-3-13.2-8.7-25.1-17.3-35.7    c-5-6.2-10.6-11.8-17.2-16.3C637.7,53.4,636.1,53.1,635.4,51z"></path>
		<path class="st3" d="M653.5,223.4c0.9-1.6,1.2-2.3,1.7-2.9c11.3-14.8,17.1-31.9,20.4-50c0.6-3,1.1-6.1,1.4-9.2    c0.2-2.1,1.2-3,3.3-3.2c5-0.3,10-0.8,15-1.3c12.2-1,24.3-1.9,36.4-3c2.6-0.2,3.3,0.7,3.3,3.2c-0.1,18.8-0.1,37.5,0,56.3    c0,2.3-0.5,3.3-3.2,3.5C706.1,219.1,680.3,221.2,653.5,223.4z"></path>
	</g>
</g>
<g>
	<g>
		<path class="st4" d="M210.7,1152.6l3.8-25.2l-7.6,0.7l1.2-7.8l24.3-2.1l-1.2,7.8l-7.6,0.7l-3.8,25.2L210.7,1152.6z"></path>
		<path class="st4" d="M278.6,1146.7l5-33.1l9.2-0.8l-2,12.8l12.3-1.1l2-12.8l9.2-0.8l-5,33.1l-9.2,0.8l2.1-13.5l-12.3,1.1    l-2.1,13.5L278.6,1146.7z"></path>
		<path class="st4" d="M359.2,1139.7l16.7-34.1l11.5-1l6.6,32l-9.2,0.8l-0.8-5.8l-13.1,1.1l-2.7,6.1L359.2,1139.7z M374,1126.2    l9.2-0.8l-1.8-10.6c0-0.2-0.1-0.7-0.2-1.6c-0.1-1-0.2-1.9-0.3-2.8c-0.3,0.8-0.6,1.6-0.9,2.4c-0.4,0.8-0.7,1.5-0.9,2.2L374,1126.2z    "></path>
		<path class="st4" d="M443.9,1132.3l5-33.1l8.9-0.8l10.2,15.9c0.3,0.4,0.6,1.1,0.9,2c0.4,1.1,0.9,2.3,1.3,3.6    c0-1.7,0.1-2.9,0.2-3.6c0.1-1.1,0.2-2,0.3-2.9l2.5-16.3l8.8-0.8l-5,33.1l-8.8,0.8l-10.2-16c-0.1-0.2-0.4-0.9-0.9-2    c-0.4-0.9-0.8-2.1-1.3-3.5c0,1.2-0.1,2.4-0.1,3.6c-0.2,1.4-0.3,2.4-0.3,2.9l-2.5,16.3L443.9,1132.3z"></path>
		<path class="st4" d="M530.9,1124.7l5-33.1l9.1-0.8l-2.3,15l13-15.9l10.7-0.9l-14.9,17.2l11,15.8l-11.5,1l-8.7-13.9l-2.3,14.8    L530.9,1124.7z"></path>
		<path class="st4" d="M629,1116.1l2.3-15.1l-9.1-16.9l10.6-0.9l3.2,8.1c0,0,0.1,0.1,0.1,0.3c0.3,0.8,0.5,1.6,0.6,2.4    c0.2-0.7,0.7-1.6,1.4-2.5l0.2-0.4l5.8-8.9l10.6-0.9l-14.6,19l-2.3,15.1L629,1116.1z"></path>
		<path class="st4" d="M735.1,1090.6c-0.4,2.4-1.1,4.7-2.3,6.8s-2.8,4.1-4.8,5.9s-4.1,3.2-6.5,4.3c-2.5,1.1-4.8,1.7-7.1,1.9    c-2.3,0.2-4.5,0-6.7-0.7c-2.1-0.7-3.9-1.8-5.3-3.2c-1.4-1.4-2.4-3.2-3.1-5.3c-0.6-2.1-0.7-4.2-0.4-6.5c0.4-2.3,1.2-4.6,2.4-6.8    c1.3-2.3,2.9-4.2,4.8-5.9c1.9-1.8,4.1-3.2,6.4-4.3c2.3-1,4.6-1.7,7.1-1.9c2.4-0.2,4.7,0,6.7,0.7c2.1,0.7,3.8,1.8,5.3,3.3    s2.5,3.3,3.1,5.3C735.4,1086.1,735.5,1088.2,735.1,1090.6z M715.6,1101.9c2.5-0.2,4.8-1.3,6.8-3.3c1-1,1.8-2.1,2.3-3.3    c0.6-1.2,1-2.5,1.2-3.9c0.4-2.8-0.1-5-1.5-6.7c-1.4-1.7-3.4-2.4-5.9-2.2c-2.6,0.2-4.8,1.3-6.8,3.3c-1.9,2-3.1,4.4-3.5,7.2    c-0.4,2.9,0,5.1,1.4,6.8C711,1101.4,713,1102.1,715.6,1101.9z"></path>
		<path class="st4" d="M789.8,1069.4l9.2-0.8l-2.5,16.1c-0.4,2.5-0.6,4.1-0.6,5.1c0,1.1,0.1,2,0.2,2.5c0.2,0.8,0.7,1.4,1.5,1.7    c0.8,0.4,1.9,0.5,3.1,0.4c1.2-0.1,2.4-0.4,3.3-1c0.9-0.5,1.6-1.1,2.1-2.1c0.3-0.6,0.7-1.5,1-2.6c0.3-0.9,0.6-2.6,1-5.1l0.3-2.3    l2.1-13.8l9.2-0.8l-2.7,17.5c-0.5,3.6-1.2,6.3-1.9,8.1c-0.7,1.8-1.7,3.3-2.9,4.6c-1.4,1.5-3.2,2.6-5.2,3.4    c-2.1,0.8-4.6,1.4-7.5,1.7c-3,0.3-5.4,0.1-7.2-0.4c-1.9-0.5-3.3-1.3-4.3-2.6c-0.9-1.1-1.4-2.5-1.6-4.3c-0.2-1.7,0-4.4,0.5-7.9    l0.5-3.4L789.8,1069.4z"></path>
	</g>
	<g>
		<path class="st3" d="M1012.2,1388.4c-17.8,1.3-35.5,2.9-53.2,4.4c-4.8,0.4-9.7,0.7-14.5,1.2c-2.5,0.3-3.6-0.6-3.4-3.2    c0.1-1.2,0-2.3,0-3.5c0-91,0-182,0-273c0-7,0-6.8,6.7-7.4c21.6-1.7,43.2-3.5,64.8-5.3c17.4-1.4,34.7-3,52.1-4.1    c13.6-0.9,27,0.9,39.9,5.8c21.3,8.1,35.5,23.2,42.6,44.5c7.2,21.8,6.8,43.8-0.7,65.5c-7.9,22.8-24.1,37.8-46,47    c-3.3,1.4-6.7,2.7-10.8,4.3c30,36.6,59.6,72.7,89.1,108.8c-0.9,1.9-2.5,1.5-3.7,1.5c-25.7,2.1-51.3,4.2-77,6.2    c-2.1,0.2-4.3,0.3-6.3,0.7c-3.5,0.7-5.6-0.7-7.5-3.6c-21.3-31.4-42.7-62.7-64-94.1c-1-1.5-2.2-2.9-3.3-4.4    c-0.4,0.1-0.7,0.2-1.1,0.2c0,2,0,4.1,0,6.1c0,31.6,0,63.1,0,94.7v7.1L1012.2,1388.4z M1039.5,1223.5c19,0.1,34.7-15.1,34.9-33.8    c0.2-19.2-15.2-35-34.2-35.1c-19.2-0.1-34.8,15.3-34.8,34.4C1005.3,1207.9,1020.7,1223.4,1039.5,1223.5z"></path>
		<path class="st3" d="M491.8,1287.7c0-45.1,0-90.2,0-135.3c0-1,0-1.9,0-2.9c0-4.7-0.4-5,4.9-5.4c31.3-2.5,62.5-5.4,93.8-7.7    c13.9-1.1,27.7-3.1,41.7-2.1c10.9,0.8,21.5,2.5,31.7,6.6c21.5,8.8,35.5,24.6,41.9,46.7c7.6,26.6,7,53.3-3,79.2    c-10.9,28.2-32.2,45.2-60.6,54c-10.4,3.2-21.1,4.8-31.9,5.8c-13.1,1.1-26.2,2.3-39.3,3.3c-5.2,0.4-4.5,0.8-4.5,5.2    c0,27.7,0,55.4,0,83.1c0,1.2-0.1,2.3,0,3.5c0.4,3.1-1,3.8-3.9,4.1c-21.8,1.7-43.6,3.6-65.4,5.4c-1,0.1-1.9,0.1-2.9,0.2    c-1.7,0.2-2.5-0.6-2.4-2.3c0.1-1.5,0-3.1,0-4.6C491.8,1378.7,491.8,1333.2,491.8,1287.7z M635.1,1234.1    c0.1-19-15.6-34.9-34.6-34.9c-18.7,0-34.4,15.6-34.6,34.3c-0.1,19,15.6,34.9,34.5,34.9C619.2,1268.4,635,1252.8,635.1,1234.1z"></path>
		<path class="st3" d="M377.8,1153.7c2.9-0.3,3.7,0.6,3.7,3.4c-0.1,18.6,0,37.2-0.1,55.7c0,3.8-0.2,3.9-4.5,4.3    c-15.8,1.3-31.6,2.6-47.5,3.8c-9.5,0.7-9.6,0.6-9.6,9.9c0,69.3,0,138.6,0,207.9c0,6.8,0,6.8-6.7,7.4c-20.8,1.7-41.7,3.3-62.5,5    c-5.5,0.4-5.7,1.6-5.7-5.2c0-55.4,0-110.7,0-166.1c0-15.7,0-31.4,0-47c0-5-0.1-4.9-5.2-4.5c-17.4,1.5-34.7,2.9-52.1,4.2    c-1.1,0.1-2.3,0.6-3.4-0.2c-0.8-1.2-0.4-2.6-0.4-3.9c0-17.8,0-35.6,0-53.4c0-5.1,0-5.2,4.7-5.5L377.8,1153.7z"></path>
		<path class="st3" d="M688.3,1128.3c15.7-1.3,31.1-2.6,46.5-3.8c8.1-0.7,16.2-1.4,24.3-1.2c13.9,0.4,27.4,2.6,40,8.7    c19.5,9.3,32,24.9,37.7,45.4c7.1,25.6,6.7,51.4-2.4,76.5c-10.7,29.5-32.5,47.3-62,56.3c-10.4,3.2-21.1,4.8-31.9,5.7    c-12.1,1-24.3,1.9-36.5,2.8c-0.2,0-0.4,0-0.6,0c-6.2,0.6-6.2,0.6-6.2,6.9c0,27.3,0,54.6,0,81.9c0,1.2-0.1,2.3,0,3.5    c0.3,2.7-0.8,3.7-3.6,3.9c-19.9,1.5-39.8,3.2-59.6,4.8c-2.9,0.2-5.8,0.5-8.7,0.8c-1.9,0.2-3-0.4-2.9-2.5c0-1,0-1.9,0-2.9    c0-21.3,0-42.6,0-63.9c0-5.2,0.1-5.1,5.2-6.2c16.9-3.6,33.5-8.2,48.3-17.3c25.4-15.8,42.5-37.9,49.8-67.2c0.6-2.6,1.8-3.9,4.5-4.3    c5.6-0.9,10.9-2.5,15.9-5.2c17.8-9.4,27.2-33.4,11.1-54.7c-6.1-8.1-15.2-11-25-11.6c-5.6-0.3-5.6-0.2-7.2-5.7    c-6-20.2-17.5-36.5-35-48.3C689.4,1130.2,688.7,1129.9,688.3,1128.3z"></path>
		<path class="st3" d="M468.2,1146.5c3.9-0.3,3.9-0.1,4,3.5c0,1.2,0,2.3,0,3.5c0,90.8,0,181.6,0,272.4c0,7.2,0,7-7.1,7.6    c-20.8,1.6-41.7,3.4-62.5,5.1c-1.5,0.1-3,0.7-4.6-0.1c-0.9-1.8-0.5-3.8-0.5-5.7c0-91.6,0-183.1,0-274.7c0-0.8,0.1-1.6,0-2.3    c-0.4-2.8,0.9-3.7,3.5-3.9L468.2,1146.5z"></path>
		<path class="st3" d="M835.3,1293.8c0,15.6,0,30.7,0,46.1c9.9-0.8,19.3-1.5,28.7-2.2c18.9-1.5,37.8-3.1,56.7-4.7    c2.6-0.2,3.4,0.5,3.4,3c-0.1,18.8-0.1,37.6,0,56.3c0,2.9-1.2,3.6-3.8,3.8c-15.1,1.1-30.1,2.4-45.2,3.6    c-21.2,1.7-42.5,3.5-63.7,5.2c-15.6,1.3-31.3,2.6-46.9,3.9c-4.1,0.3-4.2,0.2-4.2-3.9c0-22.5,0-44.9-0.1-67.4c0-2.7,0.6-4,3.6-4.6    c8.7-1.9,17.2-4.6,25.5-7.7c16.2-6.1,30-16,41.9-28.5C832.3,1295.9,833,1294.6,835.3,1293.8z"></path>
		<path class="st3" d="M819.2,1117.7c9.7-0.8,19.3-1.7,28.8-2.5c22.4-1.9,44.7-3.6,67.1-5.5c9-0.8,9-0.9,9,8.1c0,16.4,0,32.9,0,49.3    c0,4.4,0.6,4.8-4.5,5.2c-18.9,1.4-37.8,3.1-56.7,4.6c-4.7,0.4-4.8,0.4-5.8-4c-3-13.2-8.7-25.1-17.3-35.7    c-5-6.2-10.6-11.8-17.2-16.3C821.5,1120.2,819.9,1119.8,819.2,1117.7z"></path>
		<path class="st3" d="M837.3,1290.2c0.9-1.6,1.2-2.3,1.7-2.9c11.3-14.8,17.1-31.9,20.4-50c0.6-3,1.1-6.1,1.4-9.2    c0.2-2.1,1.2-3,3.3-3.2c5-0.3,10-0.8,15-1.3c12.2-1,24.3-1.9,36.4-3c2.6-0.2,3.3,0.7,3.3,3.2c-0.1,18.8-0.1,37.5,0,56.3    c0,2.3-0.5,3.3-3.2,3.5C889.9,1285.8,864.1,1288,837.3,1290.2z"></path>
	</g>
</g>
<g>
	<polygon class="st5" points="1513.7,1081.9 1796.7,1058.2 1796.7,1149.2 1707.6,1156.4 1708.9,1475.8 1601.8,1484.3 1602.4,1162.9    1513.7,1172.7  "></polygon>
	<polygon class="st2" points="1488.9,1065.4 1771.8,1041.7 1771.8,1132.6 1682.8,1139.8 1684.1,1459.2 1577,1467.7 1577.6,1146.4    1488.9,1156.2  "></polygon>
	<polygon class="st5" points="1472.3,1048.8 1755.3,1025.1 1755.3,1116.1 1666.2,1123.3 1667.5,1442.7 1560.4,1451.2 1561.1,1129.8    1472.3,1139.6  "></polygon>
</g>
<g>
	<polygon class="st2" points="1513.7,546.7 1796.7,523 1796.7,614 1707.6,621.2 1708.9,940.5 1601.8,949.1 1602.4,627.7    1513.7,637.5  "></polygon>
	<polygon class="st5" points="1488.9,530.2 1771.8,506.5 1771.8,597.4 1682.8,604.6 1684.1,924 1577,932.5 1577.6,611.1    1488.9,620.9  "></polygon>
	<polygon class="st2" points="1472.3,513.6 1755.3,489.9 1755.3,580.9 1666.2,588.1 1667.5,907.5 1560.4,916 1561.1,594.6    1472.3,604.4  "></polygon>
</g>
</svg>